<?xml version="1.0" encoding="utf-8"?>
<!-- Generator: Adobe Illustrator 23.0.3, SVG Export Plug-In . SVG Version: 6.00 Build 0)  -->
<svg version="1.1" id="Layer_1" xmlns="http://www.w3.org/2000/svg" xmlns:xlink="http://www.w3.org/1999/xlink" x="0px" y="0px" width="33" height="33"
	 viewBox="0 0 33 33" enable-background="new 0 0 33 33" xml:space="preserve">
<g>
	<path fill="#F50049" d="M28.17,4.83C25.05,1.71,20.91,0,16.5,0S7.95,1.71,4.83,4.83C1.71,7.95,0,12.09,0,16.5s1.71,8.55,4.83,11.67
		C7.95,31.29,12.09,33,16.5,33s8.55-1.71,11.67-4.83C31.29,25.05,33,20.91,33,16.5S31.29,7.95,28.17,4.83z M27.48,27.48
		c-2.93,2.93-6.83,4.54-10.98,4.54s-8.04-1.61-10.98-4.54C2.6,24.54,0.98,20.64,0.98,16.5S2.59,8.46,5.52,5.52
		C8.46,2.6,12.36,0.98,16.5,0.98s8.04,1.61,10.98,4.54s4.54,6.83,4.54,10.98S30.4,24.54,27.48,27.48z"/>
	<path fill="#F50049" d="M29.06,11.15l-0.89,0.41c0.84,1.79,1.26,3.73,1.26,5.73h0.98C30.41,15.14,29.96,13.08,29.06,11.15z"/>
	<path fill="#F50049" d="M26.33,6.9c-2.75-2.75-6.4-4.26-10.28-4.26v0.98c3.62,0,7.03,1.41,9.59,3.97c0.83,0.83,1.55,1.76,2.13,2.76
		l0.84-0.5C27.99,8.78,27.22,7.79,26.33,6.9z"/>
	<path fill="#F50049" d="M17.03,19.12c0.97,0,2.77-0.17,3.94-1.35c1.61-1.61,1.34-4.39,1.33-4.51c-0.03-0.22-0.2-0.39-0.42-0.42
		c0,0-0.22,0-0.56,0c-0.97,0-2.77,0.18-3.94,1.35c-0.15,0.15-0.29,0.32-0.41,0.5v-1.22c0.53-0.47,2.07-2.05,2.07-3.98
		c0-2.28-2.15-4.05-2.24-4.13c-0.17-0.14-0.42-0.14-0.59,0c-0.1,0.08-2.24,1.86-2.24,4.13c0,1.93,1.55,3.5,2.07,3.98v1.2
		c-0.12-0.18-0.26-0.35-0.41-0.51c-1.18-1.18-2.98-1.35-3.94-1.35c-0.34,0-0.56,0-0.56,0c-0.22,0.03-0.39,0.2-0.42,0.42
		c0,0.12-0.28,2.89,1.33,4.51c1.18,1.18,2.98,1.35,3.94,1.35h0.06v2.64c-0.12-0.17-0.26-0.33-0.42-0.48
		c-1.18-1.18-2.98-1.35-3.94-1.35c-0.34,0-0.56,0-0.56,0c-0.22,0.03-0.39,0.2-0.42,0.42c0,0.12-0.28,2.89,1.33,4.51
		C13.2,26,15,26.17,15.97,26.17h0.06v3.84c0,0.26,0.21,0.47,0.47,0.47s0.47-0.21,0.47-0.47v-3.81h0.05c0.97,0,2.77-0.17,3.94-1.35
		c1.61-1.61,1.34-4.39,1.33-4.51c-0.01-0.22-0.19-0.39-0.41-0.42c0,0-0.22,0-0.56,0c-0.97,0-2.77,0.18-3.94,1.35
		c-0.15,0.15-0.29,0.32-0.41,0.5v-2.67H17.03z M18.07,21.93L18.07,21.93c0.97-0.98,2.62-1.09,3.28-1.09h0.06
		c0,0.75-0.1,2.35-1.08,3.35c-0.98,1-2.62,1.08-3.29,1.08h-0.06C16.98,24.52,17.09,22.9,18.07,21.93z M12.7,24.18
		c-0.97-0.97-1.08-2.6-1.08-3.35c0.64,0,2.35,0.08,3.35,1.08c1,1.01,1.09,2.6,1.08,3.35C15.4,25.28,13.7,25.19,12.7,24.18z
		 M12.7,17.11c-0.97-0.97-1.08-2.6-1.08-3.35h0.06c0.66,0,2.31,0.1,3.29,1.08c0.98,0.98,1.08,2.6,1.08,3.35
		C15.4,18.2,13.7,18.11,12.7,17.11z M16.52,12.63c-0.54-0.53-1.6-1.75-1.6-3.13c0-1.38,1.07-2.6,1.6-3.13
		c0.53,0.53,1.6,1.75,1.6,3.13C18.11,10.87,17.05,12.1,16.52,12.63z M16.96,18.19c0.02-0.77,0.13-2.37,1.11-3.35l-0.03,0.01
		c0.97-0.97,2.62-1.08,3.29-1.08h0.06c0,0.75-0.1,2.35-1.08,3.35S17.6,18.2,16.96,18.19z"/>
</g>
</svg>
