<?xml version="1.0" encoding="utf-8"?>
<!-- Generator: Adobe Illustrator 23.0.3, SVG Export Plug-In . SVG Version: 6.00 Build 0)  -->
<svg version="1.1" id="Layer_1" xmlns="http://www.w3.org/2000/svg" xmlns:xlink="http://www.w3.org/1999/xlink" x="0px" y="0px" width="23" height="13"
	 viewBox="0 0 23 13" enable-background="new 0 0 23 13" xml:space="preserve">
<path fill="var(--color-social, #F50049)" d="M21.39,9.89c-0.47-0.56-1-1.07-1.52-1.56c-0.18-0.17-0.37-0.35-0.55-0.53c-0.24-0.24-0.36-0.41-0.37-0.53
	c-0.01-0.12,0.07-0.31,0.26-0.57c0.29-0.4,0.59-0.81,0.89-1.2c0.26-0.35,0.53-0.7,0.8-1.06l0.06-0.08c0.51-0.7,1.03-1.43,1.31-2.32
	c0.08-0.25,0.17-0.63-0.04-0.96c-0.2-0.33-0.58-0.43-0.84-0.47c-0.13-0.02-0.25-0.03-0.36-0.03l-3.3,0
	c-0.57-0.01-0.97,0.26-1.18,0.81c-0.17,0.43-0.38,0.94-0.61,1.41c-0.45,0.92-1.03,1.98-1.86,2.86l-0.04,0.04
	c-0.06,0.06-0.15,0.16-0.2,0.18c-0.09-0.06-0.2-0.38-0.19-0.55c0,0,0-0.01,0-0.01l0-3.81c0-0.02,0-0.04,0-0.06
	c-0.07-0.54-0.22-1.09-1.08-1.26c-0.03,0-0.06-0.01-0.08-0.01H9.05c-0.64,0-0.99,0.3-1.26,0.61C7.71,0.88,7.5,1.13,7.61,1.43
	C7.72,1.73,8.04,1.8,8.15,1.82C8.52,1.89,8.72,2.1,8.78,2.51c0.12,0.78,0.13,1.62,0.05,2.64C8.8,5.42,8.75,5.63,8.68,5.8
	C8.66,5.85,8.64,5.88,8.63,5.89C8.61,5.89,8.58,5.87,8.53,5.84C8.27,5.66,8.07,5.38,7.88,5.11C7.12,4.03,6.47,2.84,5.91,1.47
	C5.68,0.9,5.25,0.59,4.7,0.58c-1.06-0.02-2.04-0.02-2.99,0C1.26,0.59,0.94,0.73,0.77,1S0.6,1.62,0.79,2.03
	c1.32,2.94,2.52,5.08,3.89,6.94c0.97,1.31,1.94,2.21,3.06,2.86c1.18,0.67,2.51,1,4.05,1c0.17,0,0.35,0,0.53-0.01
	c0.95-0.04,1.34-0.42,1.38-1.35c0.03-0.49,0.08-0.89,0.27-1.23c0.05-0.1,0.11-0.16,0.16-0.17c0.05-0.01,0.14,0.02,0.24,0.08
	c0.18,0.12,0.33,0.28,0.46,0.42c0.13,0.14,0.26,0.29,0.39,0.43c0.27,0.3,0.55,0.61,0.84,0.91c0.66,0.67,1.42,0.98,2.26,0.92h3.02
	c0.01,0,0.02,0,0.03,0c0.35-0.02,0.65-0.22,0.83-0.53c0.21-0.38,0.21-0.86-0.01-1.28C21.95,10.58,21.65,10.2,21.39,9.89z
	 M21.43,11.87c-0.04,0.07-0.09,0.09-0.12,0.09h-3.02c-0.01,0-0.03,0-0.03,0c-0.59,0.05-1.1-0.16-1.59-0.66
	c-0.28-0.28-0.55-0.59-0.81-0.88c-0.13-0.14-0.26-0.29-0.39-0.44C15.3,9.81,15.1,9.6,14.83,9.43c-0.39-0.25-0.72-0.25-0.92-0.2
	c-0.2,0.05-0.49,0.2-0.71,0.59c-0.28,0.52-0.35,1.08-0.37,1.61c-0.01,0.32-0.07,0.41-0.09,0.43c-0.03,0.03-0.13,0.08-0.46,0.09
	c-1.6,0.08-2.95-0.21-4.11-0.88c-1.01-0.58-1.9-1.41-2.79-2.62c-1.33-1.8-2.5-3.89-3.8-6.78c-0.05-0.11-0.06-0.17-0.06-0.2
	c0.03-0.01,0.1-0.03,0.21-0.03c0.94-0.02,1.91-0.02,2.96,0c0.14,0,0.31,0.05,0.43,0.35C5.7,3.24,6.38,4.49,7.18,5.63
	c0.21,0.3,0.48,0.67,0.87,0.94C8.4,6.81,8.69,6.8,8.87,6.75c0.18-0.05,0.43-0.2,0.6-0.6c0.11-0.26,0.17-0.55,0.21-0.92
	c0.09-1.09,0.08-1.99-0.05-2.85c-0.09-0.61-0.41-1.05-0.9-1.28c0.09-0.05,0.19-0.06,0.33-0.06h3.39c0.19,0.04,0.23,0.09,0.24,0.11
	c0.06,0.07,0.08,0.25,0.11,0.38l0,3.78c-0.01,0.36,0.17,1.17,0.77,1.39c0,0,0.01,0,0.02,0c0.55,0.18,0.91-0.21,1.1-0.42l0.03-0.04
	c0.91-0.97,1.53-2.1,2.01-3.07c0.25-0.5,0.46-1.03,0.64-1.48c0.09-0.22,0.17-0.26,0.36-0.26c0,0,0,0,0.01,0l3.3,0
	c0.08,0,0.16,0,0.22,0.01c0.16,0.03,0.22,0.06,0.24,0.07c0,0.03,0,0.1-0.05,0.25c-0.24,0.75-0.7,1.39-1.19,2.07L20.2,3.94
	c-0.25,0.35-0.53,0.71-0.78,1.05c-0.3,0.39-0.61,0.81-0.9,1.22c-0.63,0.88-0.57,1.46,0.21,2.22c0.19,0.18,0.37,0.36,0.56,0.53
	c0.52,0.49,1.01,0.96,1.45,1.48c0.23,0.28,0.49,0.61,0.68,0.98C21.51,11.61,21.48,11.78,21.43,11.87z"/>
</svg>
