<?xml version="1.0" encoding="utf-8"?>
<!-- Generator: Adobe Illustrator 23.0.3, SVG Export Plug-In . SVG Version: 6.00 Build 0)  -->
<svg version="1.1" id="Capa_1" xmlns="http://www.w3.org/2000/svg" xmlns:xlink="http://www.w3.org/1999/xlink" x="0px" y="0px" width="19" height="16"
	 viewBox="0 0 19 16" enable-background="new 0 0 19 16" xml:space="preserve">
<path fill="var(--color-social, #F50049)" d="M18.6,2.18c-0.15-0.1-0.35-0.1-0.49,0.01c-0.1,0.07-0.25,0.14-0.42,0.2c0.57-0.71,0.58-1.18,0.57-1.3
	c-0.01-0.15-0.1-0.29-0.24-0.35c-0.14-0.06-0.3-0.05-0.42,0.04c-0.78,0.56-1.56,0.68-2.01,0.69c-0.74-0.69-1.7-1.06-2.71-1.06
	c-2.2,0-3.99,1.79-3.99,3.99c0,0.16,0.01,0.32,0.03,0.48C5.24,4.78,2.26,1.32,2.23,1.28c-0.09-0.1-0.22-0.16-0.36-0.15
	C1.74,1.15,1.61,1.23,1.55,1.34c-0.93,1.6-0.55,3.11,0.09,4.17C1.51,5.45,1.37,5.45,1.25,5.51C1.11,5.58,1.02,5.72,1.01,5.88
	C0.99,7.56,1.75,8.56,2.53,9.15C2.47,9.17,2.42,9.21,2.37,9.25c-0.1,0.11-0.14,0.27-0.09,0.41c0.54,1.73,1.8,2.38,2.69,2.63
	C3.95,13,2.7,13.17,1.74,13.17c-0.61,0-1.03-0.07-1.03-0.07c-0.19-0.03-0.38,0.07-0.46,0.25c-0.08,0.18-0.02,0.39,0.13,0.5
	c1.92,1.44,4.23,1.74,5.84,1.74c1.27,0,2.15-0.19,2.19-0.19c8.23-1.92,8.55-9.31,8.53-10.65c1.54-1.42,1.79-1.97,1.83-2.11
	C18.82,2.46,18.75,2.28,18.6,2.18z M16.24,4.25c-0.1,0.09-0.15,0.21-0.14,0.34c0.01,0.08,0.46,8.04-7.87,9.98
	c-0.01,0-0.84,0.17-2.01,0.17c-1.09,0-2.54-0.15-3.92-0.76c1.26-0.08,2.81-0.47,3.93-1.7c0.11-0.12,0.14-0.3,0.07-0.45
	c-0.07-0.15-0.22-0.25-0.39-0.25c-0.08,0-1.74-0.02-2.56-1.56c0.38,0.01,0.73-0.04,0.99-0.16C4.5,9.8,4.6,9.62,4.58,9.44
	C4.56,9.26,4.42,9.11,4.25,9.08c-0.09-0.02-2-0.45-2.34-2.47c0.3,0.11,0.66,0.19,1.01,0.14c0.16-0.02,0.3-0.14,0.34-0.3
	c0.05-0.16-0.01-0.33-0.13-0.44c-0.08-0.07-1.9-1.65-1.11-3.72C3.08,3.37,5.96,5.9,9.44,5.7C9.56,5.7,9.68,5.63,9.75,5.53
	c0.07-0.1,0.1-0.23,0.07-0.35c-0.07-0.25-0.1-0.52-0.1-0.78c0-1.74,1.41-3.15,3.15-3.15c0.85,0,1.65,0.33,2.24,0.94
	c0.08,0.08,0.18,0.12,0.29,0.13l0.06,0c0.31,0,0.79-0.04,1.35-0.22c-0.18,0.19-0.41,0.4-0.71,0.63c-0.15,0.11-0.2,0.31-0.14,0.48
	c0.07,0.17,0.24,0.28,0.43,0.27c0.07-0.01,0.37-0.03,0.74-0.1C16.91,3.62,16.61,3.91,16.24,4.25z"/>
</svg>
