<?xml version="1.0" encoding="utf-8"?>
<!-- Generator: Adobe Illustrator 23.0.3, SVG Export Plug-In . SVG Version: 6.00 Build 0)  -->
<svg version="1.1" id="Layer_1" xmlns="http://www.w3.org/2000/svg" xmlns:xlink="http://www.w3.org/1999/xlink" x="0px" y="0px" width="18" height="18"
	 viewBox="0 0 18 18" enable-background="new 0 0 18 18" xml:space="preserve">
<path fill="var(--color-social, #F50049)" d="M13.14,0H4.86C2.18,0,0,2.18,0,4.86v8.27C0,15.82,2.18,18,4.86,18h8.27c2.68,0,4.86-2.18,4.86-4.86V4.86
	C18,2.18,15.82,0,13.14,0z M16.54,13.14c0,1.88-1.53,3.41-3.41,3.41H4.86c-1.88,0-3.41-1.53-3.41-3.41V4.86
	c0-1.88,1.53-3.41,3.41-3.41h8.27c1.88,0,3.41,1.53,3.41,3.41V13.14z"/>
<path fill="var(--color-social, #F50049)" d="M13.03,8.37c-0.13-0.86-0.52-1.65-1.14-2.26c-0.62-0.62-1.4-1.01-2.26-1.14c-0.39-0.06-0.79-0.06-1.18,0
	C7.38,5.13,6.44,5.69,5.79,6.56s-0.91,1.93-0.75,3s0.72,2.01,1.59,2.65C7.33,12.73,8.17,13,9.03,13c0.2,0,0.4-0.01,0.6-0.05
	c1.07-0.16,2.01-0.72,2.65-1.59C12.92,10.5,13.19,9.44,13.03,8.37z M9.41,11.52c-0.68,0.1-1.36-0.07-1.92-0.48
	c-0.55-0.41-0.91-1.01-1.02-1.69c-0.1-0.68,0.07-1.36,0.48-1.92c0.41-0.56,1.01-0.91,1.69-1.02c0.13-0.02,0.25-0.03,0.38-0.03
	c0.13,0,0.25,0.01,0.38,0.03c1.13,0.17,2.01,1.04,2.18,2.18C11.8,9.99,10.82,11.31,9.41,11.52z"/>
<path fill="var(--color-social, #F50049)" d="M14.06,3.94c-0.14-0.14-0.32-0.21-0.51-0.21c-0.19,0-0.38,0.08-0.51,0.21c-0.14,0.14-0.21,0.32-0.21,0.51
	c0,0.19,0.08,0.38,0.21,0.51c0.14,0.14,0.32,0.21,0.51,0.21c0.19,0,0.38-0.08,0.51-0.21c0.14-0.14,0.21-0.32,0.21-0.51
	C14.28,4.26,14.2,4.07,14.06,3.94z"/>
</svg>